<?xml version="1.0" encoding="UTF-8"?><svg id="Calque_2" xmlns="http://www.w3.org/2000/svg" viewBox="0 0 388.43 388.43"><defs><style>.cls-1,.cls-2{stroke:#403028;stroke-miterlimit:10;stroke-width:29px;}.cls-1,.cls-3{fill:#fef0e8;}.cls-2{fill:#403129;}.cls-3{stroke-width:0px;}</style></defs><g id="Calque_1-2"><circle class="cls-3" cx="194.21" cy="194.21" r="194.21"/><path class="cls-2" d="m278.03,98.7h-141.03c-9.78,0-19.56-.09-29.34.03-10.4.14-17.69,7.31-17.71,17.57-.08,34.72-.09,69.44,0,104.15.03,10.13,7.29,17.2,17.38,17.37,4.22.07,8.44,0,12.84,0,.09,1.27.26,2.03.19,2.76-1.56,15.3-6.41,29.21-17.33,40.51-1.84,1.9-4.42,3.66-2.39,6.79,2,3.09,4.84,1.62,7.24.71,6.04-2.28,12.13-4.5,17.93-7.32,18.63-9.07,34.88-20.99,45.06-39.65,1.58-2.89,3.27-3.9,6.54-3.88,33.76.12,67.52.08,101.28.08,13.27,0,19.86-6.51,19.86-19.67.02-32.98,0-65.96,0-98.94,0-14.09-6.43-20.53-20.51-20.53Zm12.79,119.2c0,8.99-3.25,12.25-12.24,12.25-34.87,0-69.73.07-104.6-.09-4.37-.02-6.51,1.49-8.76,5.31-3.97,6.72-8.56,13.28-13.89,18.95-9.3,9.86-21.02,16.48-32.67,21.7,2.92-9.8,6.08-19.76,8.78-29.85.93-3.44.82-7.19,1.05-10.81.22-3.51-1.46-5.26-5.07-5.21-5.04.07-10.1.08-15.14,0-6.86-.11-10.61-3.75-10.62-10.51-.05-34.24-.05-68.49,0-102.73,0-6.29,3.61-9.98,9.81-10.42,1.1-.09,2.21-.04,3.31-.04h167.06c9.96,0,12.98,3.05,12.98,13,0,32.83,0,65.65,0,98.47Z"/><path class="cls-1" d="m290.81,119.43c0,32.83,0,65.65,0,98.47,0,8.99-3.25,12.25-12.24,12.25-34.87,0-69.73.07-104.6-.09-4.37-.02-6.51,1.49-8.76,5.31-3.97,6.72-8.56,13.28-13.89,18.95-9.3,9.86-21.02,16.48-32.67,21.7,2.92-9.8,6.08-19.76,8.78-29.85.93-3.44.82-7.19,1.05-10.81.22-3.51-1.46-5.26-5.07-5.21-5.04.07-10.1.08-15.14,0-6.86-.11-10.61-3.75-10.62-10.51-.05-34.24-.05-68.49,0-102.73,0-6.29,3.61-9.98,9.81-10.42,1.1-.09,2.21-.04,3.31-.04h167.06c9.96,0,12.98,3.05,12.98,13Z"/></g></svg>