<?xml version="1.0" encoding="UTF-8"?><svg id="Calque_2" xmlns="http://www.w3.org/2000/svg" viewBox="0 0 220.47 201.91"><defs><style>.cls-1{fill:#403129;}.cls-1,.cls-2{stroke-width:0px;}.cls-2{fill:#fef0e8;}</style></defs><g id="Calque_1-2"><path class="cls-2" d="m220.46,21.73c0,34.85,0,69.69,0,104.54-.01,13.9-6.97,20.78-20.98,20.78-35.67,0-71.34.05-107.01-.08-3.47-.02-5.25,1.05-6.91,4.1-10.76,19.71-27.94,32.31-47.62,41.89-6.12,2.98-12.56,5.32-18.94,7.73-2.53.96-5.53,2.51-7.65-.75-2.14-3.3.59-5.16,2.54-7.17,11.54-11.94,16.66-26.63,18.31-42.8.08-.78-.11-1.58-.21-2.92-4.64,0-9.11.06-13.56-.01-10.67-.18-18.33-7.65-18.36-18.35C-.03,92.01-.02,55.33.07,18.64.09,7.79,7.79.22,18.78.07c10.33-.13,20.66-.03,31-.03h149.02c14.87,0,21.66,6.8,21.66,21.69Z"/><path class="cls-1" d="m198.8.04H49.78c-10.34,0-20.67-.1-31,.03C7.79.22.09,7.79.07,18.64-.02,55.33-.03,92.01.07,128.69c.03,10.7,7.69,18.17,18.36,18.35,4.45.07,8.92.01,13.56.01.1,1.34.29,2.14.21,2.92-1.65,16.17-6.77,30.86-18.31,42.8-1.95,2.01-4.68,3.87-2.54,7.17,2.12,3.26,5.12,1.71,7.65.75,6.38-2.41,12.82-4.75,18.94-7.73,19.68-9.58,36.86-22.18,47.62-41.89,1.66-3.05,3.44-4.12,6.91-4.1,35.67.13,71.34.08,107.01.08,14.01,0,20.97-6.88,20.98-20.78,0-34.85,0-69.69,0-104.54C220.46,6.84,213.67.04,198.8.04Zm13.51,125.95c0,9.5-3.44,12.94-12.94,12.94-36.84,0-73.67.07-110.51-.1-4.62-.02-6.88,1.57-9.27,5.61-4.19,7.1-9.03,14.03-14.68,20.02-9.83,10.42-22.2,17.41-34.51,22.93,3.08-10.35,6.41-20.88,9.28-31.54.98-3.64.86-7.6,1.11-11.42.23-3.71-1.55-5.56-5.36-5.51-5.33.07-10.67.08-16-.01-7.26-.12-11.22-3.96-11.23-11.11-.05-36.18-.04-72.37.01-108.55,0-6.65,3.8-10.55,10.37-11.01,1.16-.09,2.33-.04,3.5-.04h176.52c10.51.01,13.71,3.22,13.71,13.74,0,34.69.01,69.37,0,104.05Z"/><path class="cls-1" d="m66.72,75.04c-.78-1.21-1.88-2.16-3.28-2.84.79-.49,1.42-1.02,1.89-1.58,1.14-1.37,1.71-3.19,1.71-5.41s-.56-4.01-1.68-5.56h0c-1.84-2.52-4.99-3.82-9.35-3.89h-17.2v35.55h16.07c1.78,0,3.45-.16,4.98-.48,1.57-.33,2.95-.94,4.1-1.83,1.03-.77,1.89-1.73,2.57-2.85,1.07-1.7,1.62-3.64,1.62-5.77s-.48-3.87-1.43-5.34Zm-20.02-12.28h7.02c1.59,0,2.91.17,3.89.5,1.04.43,1.54,1.33,1.54,2.73,0,1.27-.38,2.13-1.16,2.61-.85.51-1.99.78-3.39.78h-7.9v-6.62Zm11.17,20.99c-.76.37-1.87.56-3.28.56h-7.89v-8.21h8c1.4.01,2.5.19,3.25.54,1.28.59,1.91,1.65,1.91,3.25,0,1.93-.66,3.2-1.99,3.86Z"/><rect class="cls-1" x="72.96" y="55.76" width="7.68" height="35.55"/><path class="cls-1" d="m109.15,89.37c-.35-.17-.62-.37-.78-.61-.09-.13-.26-.5-.31-1.51-.03-1.15-.05-2.13-.05-2.93v-11.72c0-3.27-1.19-5.53-3.54-6.73-2.24-1.14-4.84-1.72-7.71-1.72-4.46,0-7.67,1.2-9.53,3.57-1.17,1.51-1.84,3.46-1.99,5.78l-.03.53h7.4l.07-.42c.14-.89.43-1.6.84-2.1.56-.66,1.57-.99,3.01-.99,1.34,0,2.35.18,3.01.54.56.3.84.87.84,1.72,0,.41-.12,1.01-1.14,1.44-.49.22-1.34.4-2.53.55l-2.29.28c-2.65.34-4.7.91-6.09,1.71-2.6,1.49-3.91,3.93-3.91,7.25,0,2.56.82,4.58,2.45,5.99,1.6,1.4,3.65,2.1,6.09,2.1,1.9,0,3.63-.44,5.15-1.31.94-.54,1.8-1.17,2.57-1.89.03.19.05.37.08.54.09.48.24,1.01.45,1.55l.13.32h8.1v-1.81l-.29-.13Zm-8.79-8.51c-.05,2.05-.62,3.47-1.7,4.21-1.14.79-2.4,1.18-3.75,1.18-.81,0-1.48-.21-2.04-.65-.52-.41-.77-1.09-.77-2.08,0-1.1.43-1.89,1.33-2.41.56-.32,1.54-.61,2.91-.85l1.52-.28c.79-.15,1.41-.31,1.88-.48.2-.08.41-.17.62-.27v1.63Z"/><path class="cls-1" d="m141.42,75.04c-.79-1.21-1.89-2.16-3.28-2.84.78-.49,1.42-1.02,1.88-1.58,1.14-1.37,1.72-3.19,1.72-5.41s-.57-4.01-1.68-5.56h0c-1.85-2.52-4.99-3.82-9.36-3.89h-17.19v35.55h16.06c1.78,0,3.46-.16,4.98-.48,1.57-.33,2.95-.94,4.11-1.83,1.02-.77,1.89-1.73,2.57-2.85,1.07-1.7,1.61-3.64,1.61-5.77s-.48-3.87-1.42-5.34Zm-20.02-12.28h7.01c1.59,0,2.91.17,3.89.5,1.04.43,1.55,1.33,1.55,2.73,0,1.27-.38,2.13-1.16,2.61-.86.51-2,.78-3.4.78h-7.89v-6.62Zm11.16,20.99c-.76.37-1.86.56-3.28.56h-7.88v-8.21h7.99c1.41.01,2.5.19,3.25.54,1.29.59,1.91,1.65,1.91,3.25,0,1.93-.65,3.2-1.99,3.86Z"/><rect class="cls-1" x="147.65" y="55.76" width="7.68" height="35.55"/><path class="cls-1" d="m183.85,89.37c-.36-.17-.62-.37-.79-.61-.09-.13-.25-.5-.3-1.51-.04-1.15-.05-2.13-.05-2.93v-11.72c0-3.27-1.19-5.53-3.55-6.73-2.24-1.14-4.83-1.72-7.71-1.72-4.46,0-7.66,1.2-9.53,3.57-1.17,1.51-1.84,3.46-1.98,5.78l-.04.53h7.41l.06-.42c.15-.89.43-1.6.84-2.1.56-.66,1.58-.99,3.02-.99,1.33,0,2.34.18,3,.54.57.3.85.87.85,1.72,0,.41-.12,1.01-1.15,1.44-.48.22-1.33.4-2.52.55l-2.3.28c-2.65.34-4.69.91-6.09,1.71-2.59,1.49-3.91,3.93-3.91,7.25,0,2.56.83,4.58,2.45,5.99,1.6,1.4,3.65,2.1,6.09,2.1,1.91,0,3.64-.44,5.16-1.31.93-.54,1.79-1.17,2.57-1.89.02.19.05.37.08.54.08.48.23,1.01.45,1.55l.12.32h8.11v-1.81l-.29-.13Zm-8.8-8.51c-.04,2.05-.61,3.47-1.7,4.21-1.14.79-2.4,1.18-3.75,1.18-.81,0-1.48-.21-2.03-.65-.52-.41-.78-1.09-.78-2.08,0-1.1.44-1.89,1.33-2.41.57-.32,1.55-.61,2.91-.85l1.52-.28c.8-.15,1.41-.31,1.88-.48.21-.08.42-.17.62-.27v1.63Z"/></g></svg>